<svg width="10" height="18" viewBox="0 0 10 18" fill="none" xmlns="http://www.w3.org/2000/svg">
<path d="M9.70925 11.553C9.70925 13.4075 8.23424 14.8178 5.99502 15.1398V17.2266H3.82154V15.1316C2.41638 14.9482 1.03588 14.4509 0.0251465 13.7662L1.34813 11.6467C2.4698 12.36 3.83798 12.7554 5.11166 12.7554C6.30728 12.7554 7.05506 12.2866 7.09615 11.5163C7.13723 10.7786 6.71404 10.4933 5.38284 10.1876L3.92015 9.85336C1.25774 9.24606 0.247013 8.04368 0.242905 6.19731C0.242905 4.43246 1.78776 3.06705 3.81333 2.73283V0.939453H5.98681V2.74913C7.21119 2.93662 8.34107 3.39312 9.21621 3.96782L7.9754 6.04243C7.06738 5.45958 6.08953 5.07238 5.00484 5.0683C3.8462 5.06422 3.03268 5.49627 3.03679 6.27475C3.03679 6.96358 3.52161 7.31002 4.63095 7.56273L6.23333 7.92548C8.64922 8.47572 9.69693 9.61288 9.70104 11.553H9.70925Z" fill="#26C7B7"/>
</svg>
